# This file uses centimeters as units for non-parametric coordinates.

v -639.382833 -8.631916 639.382833
v 639.382833 -8.631916 639.382833
v -1.860356 612.447401 1.860364
v 1.860372 612.447401 1.860364
v -1.860356 612.447401 -1.860364
v 1.860372 612.447401 -1.860364
v -639.382833 -8.631916 -639.382833
v 639.382833 -8.631916 -639.382833
vt 0.480769 7.550148
vt 0.460379 7.550148
vt 0.460379 7.529757
vt 0.480769 7.529757
vt 0.485430 0.599009
vt 0.436035 0.599009
vt 0.436035 0.549614
vt 0.485430 0.549614
vt 32.636692 -30.977814
vt -0.000704 33.518337
vt 32.636692 -30.992580
vt 0.011450 33.516056
vt 0.189462 33.516701
vt -32.432911 -30.984760
vt 0.201620 33.514351
vt -32.432911 -30.994862
vt -32.156700 -30.710930
vt 32.360481 -30.717655
vt 0.011017 33.239857
vt 0.198076 33.241127
vt -32.156708 -30.718403
vt 32.360489 -30.708725
vt 0.003002 33.240547
vt 0.190060 33.241882
vn 0.000000 0.716284 0.697809
vn 0.000000 0.716284 0.697809
vn 0.000000 0.716284 0.697809
vn 0.000000 0.716280 0.697813
vn 0.000000 1.000000 0.000000
vn 0.000000 1.000000 0.000000
vn 0.000000 1.000000 0.000000
vn 0.000000 1.000000 0.000000
vn 0.000000 0.716284 -0.697809
vn 0.000000 0.716284 -0.697809
vn 0.000000 0.716284 -0.697809
vn 0.000000 0.716280 -0.697813
vn 0.000000 -1.000000 0.000000
vn 0.000000 -1.000000 0.000000
vn 0.000000 -1.000000 0.000000
vn 0.000000 -1.000000 0.000000
vn 0.697809 0.716284 0.000000
vn 0.697809 0.716284 0.000000
vn 0.697809 0.716284 0.000000
vn 0.697808 0.716285 0.000000
vn -0.697809 0.716284 0.000000
vn -0.697809 0.716284 0.000000
vn -0.697809 0.716284 0.000000
vn -0.697808 0.716285 0.000000
f 1/17/1 2/18/2 3/19/3
f 2/18/2 4/20/4 3/19/3
f 3/1/5 4/2/6 5/4/7
f 5/4/7 4/2/6 6/3/8
f 8/21/9 7/22/10 6/23/11
f 5/24/12 6/23/11 7/22/10
f 7/5/13 8/6/14 1/8/15
f 1/8/15 8/6/14 2/7/16
f 2/16/17 8/9/18 4/10/19
f 8/9/18 6/13/20 4/10/19
f 7/14/21 1/11/22 5/12/23
f 1/11/22 3/15/24 5/12/23
