# This file uses centimeters as units for non-parametric coordinates.

v -40.000000 0.000000 85.019030
v 40.000000 0.000000 85.019030
v -11.022608 119.905710 85.019030
v 11.022608 119.905710 85.019030
v -11.022608 119.905710 58.499495
v 11.022608 119.905710 58.499495
v -77.054558 0.000000 -85.019030
v 77.054558 0.000000 -85.019030
vt 0.375000 0.000000
vt 0.625000 0.000000
vt 0.375000 0.250000
vt 0.625000 0.250000
vt 0.375000 0.500000
vt 0.625000 0.500000
vt 0.375000 0.750000
vt 0.625000 0.750000
vt 0.375000 1.000000
vt 0.625000 1.000000
vt 0.875000 0.000000
vt 0.875000 0.250000
vt 0.125000 0.000000
vt 0.125000 0.250000
vn 0.000000 0.000000 1.000000
vn 0.000000 0.000000 1.000000
vn 0.000000 0.000000 1.000000
vn 0.000000 0.000000 1.000000
vn 0.000000 1.000000 0.000000
vn 0.000000 1.000000 0.000000
vn 0.000000 1.000000 0.000000
vn 0.000000 1.000000 0.000000
vn 0.000000 0.767413 -0.641153
vn 0.000000 0.767413 -0.641153
vn 0.000000 0.767413 -0.641153
vn 0.000000 0.767413 -0.641153
vn 0.000000 -1.000000 0.000000
vn 0.000000 -1.000000 0.000000
vn 0.000000 -1.000000 0.000000
vn 0.000000 -1.000000 0.000000
vn 0.972018 0.234906 0.000000
vn 0.940595 0.272199 0.202951
vn 0.952671 0.263689 0.151282
vn 0.940093 0.272500 0.204864
vn -0.972018 0.234906 0.000000
vn -0.952671 0.263689 0.151282
vn -0.940595 0.272199 0.202951
vn -0.940093 0.272500 0.204864
f 1/1/1 2/2/2 3/3/3
f 3/3/3 2/2/2 4/4/4
f 3/3/5 4/4/6 5/5/7
f 5/5/7 4/4/6 6/6/8
f 5/5/9 6/6/10 7/7/11
f 7/7/11 6/6/10 8/8/12
f 7/7/13 8/8/14 1/9/15
f 1/9/15 8/8/14 2/10/16
f 4/4/17 2/2/18 6/12/19
f 2/2/18 8/11/20 6/12/19
f 3/3/21 5/14/22 1/1/23
f 7/13/24 1/1/23 5/14/22
