# This file uses centimeters as units for non-parametric coordinates.

v -0.000049 0.000000 0.012989
v -0.124698 -0.087281 0.123546
v -0.077086 -0.053942 0.302432
v 0.076989 0.053942 0.302432
v 0.124601 0.087281 0.123546
v -0.022992 0.032766 -0.027011
v -0.178804 -0.076335 0.111186
v -0.119289 -0.034662 0.334792
v 0.073305 0.100194 0.334792
v 0.132820 0.141867 0.111186
v -0.000049 0.000000 -0.067011
v -0.187023 -0.130921 0.098825
v -0.115605 -0.080914 0.367153
v 0.115508 0.080914 0.367153
v 0.186926 0.130921 0.098825
v 0.022894 -0.032766 -0.027011
v -0.132918 -0.141867 0.111186
v -0.073403 -0.100194 0.334792
v 0.119192 0.034662 0.334792
v 0.178706 0.076335 0.111186
v -0.000049 -0.000000 -0.287011
v -0.143041 0.052045 -0.176454
v -0.088423 0.032166 0.002432
v 0.088325 -0.032166 0.002432
v 0.142944 -0.052045 -0.176454
v 0.013632 0.037588 -0.327011
v -0.165108 0.102644 -0.188814
v -0.096835 0.077795 0.034792
v 0.124100 -0.002619 0.034792
v 0.192372 -0.027468 -0.188814
v -0.000049 -0.000000 -0.367011
v -0.214537 0.078067 -0.201175
v -0.132610 0.048248 0.067153
v 0.132512 -0.048248 0.067153
v 0.214440 -0.078067 -0.201175
v -0.013729 -0.037588 -0.327011
v -0.192470 0.027468 -0.188814
v -0.124197 0.002619 0.034792
v 0.096738 -0.077795 0.034792
v 0.165011 -0.102644 -0.188814
vt 0.625539 0.864335
vt 0.674113 0.864335
vt 0.722686 0.864335
vt 0.771260 0.864335
vt 0.819833 0.864335
vt 0.868406 0.864335
vt 0.625539 0.803619
vt 0.674113 0.803619
vt 0.722686 0.803619
vt 0.771260 0.803619
vt 0.819833 0.803619
vt 0.868406 0.803619
vt 0.625539 0.742902
vt 0.674113 0.742902
vt 0.722686 0.742902
vt 0.771260 0.742902
vt 0.819833 0.742902
vt 0.868406 0.742902
vt 0.625539 0.682185
vt 0.674113 0.682185
vt 0.722686 0.682185
vt 0.771260 0.682185
vt 0.819833 0.682185
vt 0.868406 0.682185
vt 0.625539 0.621468
vt 0.674113 0.621468
vt 0.722686 0.621468
vt 0.771260 0.621468
vt 0.819833 0.621468
vt 0.868406 0.621468
vt 0.674113 0.864335
vt 0.625539 0.864335
vt 0.625539 0.803619
vt 0.674113 0.803619
vt 0.722686 0.864335
vt 0.722686 0.803619
vt 0.771260 0.864335
vt 0.771260 0.803619
vt 0.819833 0.864335
vt 0.819833 0.803619
vt 0.868406 0.864335
vt 0.868406 0.803619
vt 0.625539 0.742902
vt 0.674113 0.742902
vt 0.722686 0.742902
vt 0.771260 0.742902
vt 0.819833 0.742902
vt 0.868406 0.742902
vt 0.625539 0.682185
vt 0.674113 0.682185
vt 0.722686 0.682185
vt 0.771260 0.682185
vt 0.819833 0.682185
vt 0.868406 0.682185
vt 0.625539 0.621468
vt 0.674113 0.621468
vt 0.722686 0.621468
vt 0.771260 0.621468
vt 0.819833 0.621468
vt 0.868406 0.621468
vn 0.013569 0.777319 0.628960
vn 0.013568 0.777319 0.628960
vn 0.013568 0.777319 0.628960
vn 0.013568 0.777319 0.628960
vn 0.244914 0.939309 -0.240241
vn 0.244914 0.939309 -0.240241
vn 0.244914 0.939309 -0.240241
vn 0.244914 0.939309 -0.240241
vn -0.360756 0.515214 -0.777438
vn -0.360756 0.515214 -0.777438
vn -0.360756 0.515214 -0.777438
vn -0.360756 0.515214 -0.777438
vn -0.966427 0.091119 -0.240241
vn -0.966427 0.091119 -0.240241
vn -0.966427 0.091119 -0.240241
vn -0.966427 0.091119 -0.240241
vn -0.735082 0.253109 0.628960
vn -0.735082 0.253109 0.628960
vn -0.735082 0.253109 0.628960
vn -0.735082 0.253109 0.628960
vn -0.735082 0.253109 -0.628960
vn -0.735082 0.253109 -0.628960
vn -0.735082 0.253109 -0.628960
vn -0.735081 0.253109 -0.628960
vn -0.966427 0.091119 0.240241
vn -0.966427 0.091119 0.240241
vn -0.966427 0.091119 0.240241
vn -0.966427 0.091119 0.240241
vn -0.360757 0.515214 0.777437
vn -0.360757 0.515214 0.777438
vn -0.360757 0.515214 0.777437
vn -0.360757 0.515214 0.777438
vn 0.244914 0.939309 0.240241
vn 0.244914 0.939309 0.240241
vn 0.244914 0.939309 0.240241
vn 0.244914 0.939309 0.240242
vn 0.013568 0.777319 -0.628960
vn 0.013568 0.777319 -0.628960
vn 0.013568 0.777319 -0.628960
vn 0.013568 0.777319 -0.628960
vn -0.013568 -0.777319 -0.628960
vn -0.013568 -0.777319 -0.628960
vn -0.013568 -0.777319 -0.628960
vn -0.013568 -0.777319 -0.628960
vn -0.244914 -0.939309 0.240241
vn -0.244913 -0.939309 0.240241
vn -0.244914 -0.939309 0.240241
vn -0.244913 -0.939309 0.240241
vn 0.360757 -0.515214 0.777437
vn 0.360756 -0.515214 0.777438
vn 0.360757 -0.515214 0.777437
vn 0.360756 -0.515214 0.777438
vn 0.966427 -0.091119 0.240241
vn 0.966427 -0.091119 0.240241
vn 0.966427 -0.091119 0.240241
vn 0.966427 -0.091120 0.240241
vn 0.735082 -0.253109 -0.628960
vn 0.735082 -0.253109 -0.628960
vn 0.735082 -0.253109 -0.628960
vn 0.735082 -0.253109 -0.628960
vn 0.735082 -0.253109 0.628960
vn 0.735082 -0.253109 0.628960
vn 0.735082 -0.253109 0.628960
vn 0.735082 -0.253109 0.628960
vn 0.966427 -0.091119 -0.240241
vn 0.966427 -0.091119 -0.240241
vn 0.966427 -0.091119 -0.240241
vn 0.966427 -0.091119 -0.240241
vn 0.360756 -0.515214 -0.777438
vn 0.360757 -0.515214 -0.777437
vn 0.360757 -0.515214 -0.777438
vn 0.360757 -0.515214 -0.777437
vn -0.244914 -0.939309 -0.240242
vn -0.244914 -0.939309 -0.240241
vn -0.244914 -0.939309 -0.240241
vn -0.244913 -0.939309 -0.240241
vn -0.013568 -0.777319 0.628960
vn -0.013568 -0.777319 0.628960
vn -0.013568 -0.777319 0.628960
vn -0.013568 -0.777319 0.628960
vn 0.644525 0.434738 0.628960
vn 0.644525 0.434737 0.628960
vn 0.644525 0.434737 0.628960
vn 0.644525 0.434737 0.628960
vn 0.909914 0.338144 -0.240241
vn 0.909914 0.338144 -0.240241
vn 0.909914 0.338144 -0.240241
vn 0.909914 0.338144 -0.240241
vn 0.215117 0.591029 -0.777438
vn 0.215117 0.591029 -0.777438
vn 0.215117 0.591029 -0.777438
vn 0.215117 0.591029 -0.777438
vn -0.479680 0.843915 -0.240241
vn -0.479679 0.843915 -0.240241
vn -0.479679 0.843914 -0.240241
vn -0.479679 0.843915 -0.240241
vn -0.214291 0.747321 0.628960
vn -0.214291 0.747321 0.628960
vn -0.214291 0.747321 0.628960
vn -0.214291 0.747321 0.628960
vn -0.214291 0.747321 -0.628960
vn -0.214290 0.747321 -0.628960
vn -0.214291 0.747321 -0.628960
vn -0.214290 0.747321 -0.628960
vn -0.479679 0.843915 0.240241
vn -0.479679 0.843915 0.240241
vn -0.479679 0.843915 0.240241
vn -0.479679 0.843915 0.240241
vn 0.215117 0.591029 0.777438
vn 0.215117 0.591029 0.777437
vn 0.215117 0.591029 0.777438
vn 0.215117 0.591029 0.777437
vn 0.909914 0.338144 0.240241
vn 0.909914 0.338144 0.240241
vn 0.909914 0.338144 0.240241
vn 0.909914 0.338144 0.240241
vn 0.644525 0.434738 -0.628960
vn 0.644525 0.434738 -0.628960
vn 0.644525 0.434738 -0.628960
vn 0.644525 0.434738 -0.628960
vn -0.644525 -0.434738 -0.628960
vn -0.644525 -0.434738 -0.628960
vn -0.644525 -0.434738 -0.628960
vn -0.644525 -0.434738 -0.628960
vn -0.909914 -0.338144 0.240241
vn -0.909913 -0.338145 0.240241
vn -0.909914 -0.338144 0.240241
vn -0.909913 -0.338145 0.240241
vn -0.215117 -0.591029 0.777437
vn -0.215117 -0.591029 0.777438
vn -0.215117 -0.591029 0.777437
vn -0.215117 -0.591029 0.777438
vn 0.479680 -0.843915 0.240241
vn 0.479679 -0.843915 0.240241
vn 0.479680 -0.843915 0.240241
vn 0.479679 -0.843915 0.240241
vn 0.214291 -0.747321 -0.628960
vn 0.214291 -0.747321 -0.628960
vn 0.214291 -0.747321 -0.628960
vn 0.214291 -0.747321 -0.628960
vn 0.214291 -0.747321 0.628960
vn 0.214291 -0.747321 0.628960
vn 0.214291 -0.747321 0.628960
vn 0.214291 -0.747321 0.628960
vn 0.479680 -0.843914 -0.240241
vn 0.479680 -0.843914 -0.240241
vn 0.479680 -0.843914 -0.240241
vn 0.479680 -0.843915 -0.240241
vn -0.215117 -0.591029 -0.777438
vn -0.215117 -0.591029 -0.777438
vn -0.215117 -0.591029 -0.777438
vn -0.215117 -0.591029 -0.777438
vn -0.909913 -0.338144 -0.240241
vn -0.909913 -0.338144 -0.240241
vn -0.909913 -0.338144 -0.240241
vn -0.909914 -0.338144 -0.240241
vn -0.644525 -0.434737 0.628960
vn -0.644525 -0.434738 0.628960
vn -0.644525 -0.434737 0.628960
vn -0.644525 -0.434738 0.628960
f 2/2/1 1/1/2 7/8/3
f 7/8/3 1/1/2 6/7/4
f 3/3/5 2/2/6 8/9/7
f 8/9/7 2/2/6 7/8/8
f 4/4/9 3/3/10 9/10/11
f 9/10/11 3/3/10 8/9/12
f 5/5/13 4/4/14 10/11/15
f 10/11/15 4/4/14 9/10/16
f 1/6/17 5/5/18 6/12/19
f 6/12/19 5/5/18 10/11/20
f 7/8/21 6/7/22 12/14/23
f 12/14/23 6/7/22 11/13/24
f 8/9/25 7/8/26 13/15/27
f 13/15/27 7/8/26 12/14/28
f 9/10/29 8/9/30 14/16/31
f 14/16/31 8/9/30 13/15/32
f 10/11/33 9/10/34 15/17/35
f 15/17/35 9/10/34 14/16/36
f 6/12/37 10/11/38 11/18/39
f 11/18/39 10/11/38 15/17/40
f 12/14/41 11/13/42 17/20/43
f 17/20/43 11/13/42 16/19/44
f 13/15/45 12/14/46 18/21/47
f 18/21/47 12/14/46 17/20/48
f 14/16/49 13/15/50 19/22/51
f 19/22/51 13/15/50 18/21/52
f 15/17/53 14/16/54 20/23/55
f 20/23/55 14/16/54 19/22/56
f 11/18/57 15/17/58 16/24/59
f 16/24/59 15/17/58 20/23/60
f 17/20/61 16/19/62 2/26/63
f 2/26/63 16/19/62 1/25/64
f 18/21/65 17/20/66 3/27/67
f 3/27/67 17/20/66 2/26/68
f 19/22/69 18/21/70 4/28/71
f 4/28/71 18/21/70 3/27/72
f 20/23/73 19/22/74 5/29/75
f 5/29/75 19/22/74 4/28/76
f 16/24/77 20/23/78 1/30/79
f 1/30/79 20/23/78 5/29/80
f 22/31/81 21/32/82 27/34/83
f 27/34/83 21/32/82 26/33/84
f 23/35/85 22/31/86 28/36/87
f 28/36/87 22/31/86 27/34/88
f 24/37/89 23/35/90 29/38/91
f 29/38/91 23/35/90 28/36/92
f 25/39/93 24/37/94 30/40/95
f 30/40/95 24/37/94 29/38/96
f 21/41/97 25/39/98 26/42/99
f 26/42/99 25/39/98 30/40/100
f 27/34/101 26/33/102 32/44/103
f 32/44/103 26/33/102 31/43/104
f 28/36/105 27/34/106 33/45/107
f 33/45/107 27/34/106 32/44/108
f 29/38/109 28/36/110 34/46/111
f 34/46/111 28/36/110 33/45/112
f 30/40/113 29/38/114 35/47/115
f 35/47/115 29/38/114 34/46/116
f 26/42/117 30/40/118 31/48/119
f 31/48/119 30/40/118 35/47/120
f 32/44/121 31/43/122 37/50/123
f 37/50/123 31/43/122 36/49/124
f 33/45/125 32/44/126 38/51/127
f 38/51/127 32/44/126 37/50/128
f 34/46/129 33/45/130 39/52/131
f 39/52/131 33/45/130 38/51/132
f 35/47/133 34/46/134 40/53/135
f 40/53/135 34/46/134 39/52/136
f 31/48/137 35/47/138 36/54/139
f 36/54/139 35/47/138 40/53/140
f 37/50/141 36/49/142 22/56/143
f 22/56/143 36/49/142 21/55/144
f 38/51/145 37/50/146 23/57/147
f 23/57/147 37/50/146 22/56/148
f 39/52/149 38/51/150 24/58/151
f 24/58/151 38/51/150 23/57/152
f 40/53/153 39/52/154 25/59/155
f 25/59/155 39/52/154 24/58/156
f 36/54/157 40/53/158 21/60/159
f 21/60/159 40/53/158 25/59/160
