# This file uses centimeters as units for non-parametric coordinates.

mtllib expandingBridge.mtl
g default
v 2.153876 -0.805503 10.118048
v 2.153876 0.229191 10.118048
v -5.292641 -0.805503 10.118048
v -5.292641 0.229191 10.118048
v -5.292641 -0.805503 -10.380506
v -5.292641 0.229191 -10.380506
v 2.153876 -0.805503 -10.380506
v 2.153876 0.229191 -10.380506
vt 0.226492 0.337902
vt 0.241757 0.337902
vt 0.226492 0.353167
vt 0.241757 0.353167
vt 0.226492 0.368433
vt 0.241757 0.368433
vt 0.226492 0.383698
vt 0.241757 0.383698
vt 0.226492 0.398964
vt 0.241757 0.398964
vt 0.257023 0.337902
vt 0.257023 0.353167
vt 0.211227 0.337902
vt 0.211227 0.353167
vn 0.000000 0.000000 1.000000
vn 0.000000 0.000000 1.000000
vn 0.000000 0.000000 1.000000
vn 0.000000 0.000000 1.000000
vn -1.000000 0.000000 0.000000
vn -1.000000 0.000000 0.000000
vn -1.000000 0.000000 0.000000
vn -1.000000 0.000000 0.000000
vn 0.000000 0.000000 -1.000000
vn 0.000000 0.000000 -1.000000
vn 0.000000 0.000000 -1.000000
vn 0.000000 0.000000 -1.000000
vn 1.000000 0.000000 0.000000
vn 1.000000 0.000000 0.000000
vn 1.000000 0.000000 0.000000
vn 1.000000 0.000000 0.000000
vn 0.000000 1.000000 0.000000
vn 0.000000 1.000000 0.000000
vn 0.000000 1.000000 0.000000
vn 0.000000 1.000000 0.000000
vn 0.000000 -1.000000 0.000000
vn 0.000000 -1.000000 0.000000
vn 0.000000 -1.000000 0.000000
vn 0.000000 -1.000000 0.000000
s 1
g polySurface1536 polySurface1470
usemtl lambert8SG
f 1/1/1 2/2/2 3/3/3
f 3/3/3 2/2/2 4/4/4
s 2
f 3/3/5 4/4/6 5/5/7
f 5/5/7 4/4/6 6/6/8
s 3
f 5/5/9 6/6/10 7/7/11
f 7/7/11 6/6/10 8/8/12
s 4
f 7/7/13 8/8/14 1/9/15
f 1/9/15 8/8/14 2/10/16
s 5
f 2/2/17 8/11/18 4/4/19
f 4/4/19 8/11/18 6/12/20
s 6
f 7/13/21 1/1/22 5/14/23
f 5/14/23 1/1/22 3/3/24
