# This file uses centimeters as units for non-parametric coordinates.

v -296.856315 0.000000 296.856315
v 296.856315 0.000000 296.856315
v -11.642214 283.628654 11.642144
v 11.642222 283.628654 11.642163
v -11.642163 283.628654 -11.642163
v 11.642163 283.628654 -11.642163
v -296.856315 0.000000 -296.856315
v 296.856315 0.000000 -296.856315
vt -14.622206 -14.914216
vt 15.622206 -14.914216
vt 1.093063 15.914214
vt -0.093067 15.914214
vt 1.023610 15.914214
vt -0.023613 15.914214
vt 13.851260 -14.914216
vt -12.851261 -14.914216
vt -12.851261 -14.914216
vt 13.851260 -14.914216
vt 1.023610 15.914214
vt -0.023613 15.914214
vt 13.851261 -14.914216
vt -12.851262 -14.914216
vt -0.023613 15.914214
vt 1.023610 15.914214
vt 0.480769 7.550148
vt 0.460379 7.550148
vt 0.460379 7.529757
vt 0.480769 7.529757
vt 0.436035 0.599009
vt 0.485430 0.599009
vt 0.485430 0.549614
vt 0.436035 0.549614
vn 0.000000 0.709075 0.705133
vn -0.000000 0.709075 0.705133
vn -0.000000 0.709075 0.705133
vn -0.000001 0.709075 0.705133
vn 0.000000 1.000000 -0.000000
vn 0.000000 1.000000 0.000000
vn 0.000000 1.000000 0.000000
vn 0.000000 1.000000 0.000000
vn 0.000000 0.709075 -0.705133
vn 0.000000 0.709075 -0.705133
vn 0.000000 0.709075 -0.705133
vn 0.000000 0.709075 -0.705133
vn 0.000000 -1.000000 0.000000
vn 0.000000 -1.000000 0.000000
vn 0.000000 -1.000000 0.000000
vn 0.000000 -1.000000 0.000000
vn 0.705133 0.709075 0.000000
vn 0.705133 0.709075 -0.000000
vn 0.705133 0.709075 -0.000000
vn 0.705132 0.709076 -0.000001
vn -0.705133 0.709075 0.000000
vn -0.705133 0.709075 -0.000000
vn -0.705133 0.709075 -0.000000
vn -0.705134 0.709074 -0.000001
f 1/1/1 2/2/2 3/4/3
f 2/2/2 4/3/4 3/4/3
f 3/17/5 4/18/6 5/20/7
f 5/20/7 4/18/6 6/19/8
f 8/7/9 7/8/10 6/5/11
f 5/6/12 6/5/11 7/8/10
f 7/21/13 8/22/14 1/24/15
f 1/24/15 8/22/14 2/23/16
f 2/9/17 8/10/18 4/12/19
f 8/10/18 6/11/20 4/12/19
f 7/13/21 1/14/22 5/16/23
f 1/14/22 3/15/24 5/16/23
