# This file uses centimeters as units for non-parametric coordinates.

v 1.928473 0.000000 -1.915606
v 0.012867 0.000000 -2.709076
v -1.902739 0.000000 -1.915606
v -2.456574 0.000000 0.478877
v -2.059819 0.000000 1.436729
v 0.012867 0.000000 2.709076
v 1.928473 0.000000 1.915606
v 2.721943 0.000000 0.000000
v 2.121320 0.400000 -2.121320
v 0.000000 0.400000 -3.000000
v -2.121320 0.400000 -2.121320
v -2.734631 0.400000 0.530303
v -2.295269 0.400000 1.591017
v 0.000000 0.400000 3.000000
v 2.121320 0.400000 2.121320
v 3.000000 0.400000 0.000000
v 0.012868 0.000000 -0.000001
v 1.938471 0.400000 -1.938471
v 0.000000 0.400000 -2.741412
v 0.000000 0.400000 -0.000001
v -1.938471 0.400000 -1.938471
v -2.605331 0.400000 0.530303
v -2.203840 0.400000 1.499588
v 0.000000 0.400000 2.741412
v 1.938471 0.400000 1.938471
v 2.741413 0.400000 0.000000
v 2.191426 0.538485 -2.196103
v -0.004678 0.538485 -3.105759
v -0.004678 0.538485 -2.838055
v 2.002131 0.538485 -2.006808
v -2.200781 0.538485 -2.196103
v -2.011486 0.538485 -2.006808
v -2.835713 0.538485 0.548998
v -2.701854 0.538485 0.548998
v -2.380862 0.538485 1.647106
v -0.004678 0.538485 3.105759
v -0.004678 0.538485 2.838056
v -2.286210 0.538485 1.552454
v 2.191426 0.538485 2.196103
v 2.002131 0.538485 2.006808
v 3.101081 0.538485 -0.000000
v 2.833378 0.538485 -0.000000
vt 0.610485 0.045765
vt 0.500000 0.000000
vt 0.389515 0.045765
vt 0.343750 0.156250
vt 0.389515 0.266735
vt 0.500000 0.312500
vt 0.610485 0.266735
vt 0.656250 0.156250
vt 0.375000 0.312500
vt 0.406250 0.312500
vt 0.437500 0.312500
vt 0.468750 0.312500
vt 0.500000 0.312500
vt 0.531250 0.312500
vt 0.562500 0.312500
vt 0.593750 0.312500
vt 0.625000 0.312500
vt 0.375000 0.688440
vt 0.406250 0.688440
vt 0.437500 0.688440
vt 0.468750 0.688440
vt 0.500000 0.688440
vt 0.531250 0.688440
vt 0.562500 0.688440
vt 0.593750 0.688440
vt 0.625000 0.688440
vt 0.610485 0.733265
vt 0.500000 0.687500
vt 0.389515 0.733265
vt 0.343750 0.843750
vt 0.389515 0.954235
vt 0.500000 1.000000
vt 0.610485 0.954235
vt 0.656250 0.843750
vt 0.500000 0.150000
vt 0.500000 0.837500
vt 0.610485 0.954235
vt 0.500000 1.000000
vt 0.389515 0.954235
vt 0.343750 0.843750
vt 0.389515 0.733265
vt 0.500000 0.687500
vt 0.610485 0.733265
vt 0.656250 0.843750
vt 0.610485 0.954235
vt 0.500000 1.000000
vt 0.500000 1.000000
vt 0.610485 0.954235
vt 0.389515 0.954235
vt 0.389515 0.954235
vt 0.343750 0.843750
vt 0.343750 0.843750
vt 0.389515 0.733265
vt 0.500000 0.687500
vt 0.500000 0.687500
vt 0.389515 0.733265
vt 0.610485 0.733265
vt 0.610485 0.733265
vt 0.656250 0.843750
vt 0.656250 0.843750
vn 0.319445 -0.550631 -0.771208
vn 0.319445 -0.550631 -0.771208
vn 0.318158 -0.555692 -0.768102
vn 0.318155 -0.555704 -0.768095
vn -0.315825 -0.564710 -0.762468
vn -0.315825 -0.564709 -0.762468
vn -0.314488 -0.569782 -0.759240
vn -0.314484 -0.569794 -0.759232
vn -0.817515 -0.543980 -0.189088
vn -0.814287 -0.549057 -0.188342
vn -0.817516 -0.543980 -0.189088
vn -0.814276 -0.549074 -0.188339
vn -0.441307 -0.537058 0.718900
vn -0.441307 -0.537058 0.718900
vn -0.439606 -0.542130 0.716130
vn -0.439605 -0.542135 0.716127
vn 0.319445 -0.550631 0.771207
vn 0.318158 -0.555692 0.768102
vn 0.319445 -0.550631 0.771207
vn 0.318155 -0.555705 0.768095
vn 0.777371 -0.540382 0.321998
vn 0.774352 -0.545436 0.320747
vn 0.777371 -0.540382 0.321997
vn 0.774351 -0.545438 0.320747
vn 0.777371 -0.540382 -0.321998
vn 0.777370 -0.540382 -0.321997
vn 0.774351 -0.545437 -0.320747
vn 0.774351 -0.545438 -0.320747
vn 0.000000 -1.000000 -0.000000
vn 0.000000 -1.000000 -0.000000
vn 0.000000 -1.000000 -0.000000
vn 0.000000 -1.000000 0.000000
vn 0.000000 -1.000000 0.000000
vn 0.000000 -1.000000 -0.000000
vn 0.000000 -1.000000 -0.000000
vn 0.000000 -1.000000 0.000000
vn 0.000000 -1.000000 0.000000
vn 0.000000 1.000000 0.000000
vn 0.000000 1.000000 0.000000
vn 0.000000 1.000000 0.000000
vn 0.000000 1.000000 0.000000
vn 0.000000 1.000000 0.000000
vn 0.000000 1.000000 0.000000
vn 0.000000 1.000000 0.000000
vn 0.000000 1.000000 0.000000
vn 0.000000 1.000000 0.000000
vn 0.000000 1.000000 0.000000
vn 0.000000 1.000000 0.000000
vn 0.000000 1.000000 0.000000
vn 0.000000 1.000000 0.000000
vn 0.000000 1.000000 -0.000000
vn 0.000000 1.000000 -0.000000
vn 0.000000 1.000000 -0.000000
vn 0.000000 1.000000 0.000000
vn 0.000000 1.000000 0.000000
vn 0.000000 1.000000 0.000000
vn 0.000000 1.000000 0.000000
vn 0.000000 1.000000 0.000000
vn 0.000000 1.000000 0.000000
vn 0.000000 1.000000 0.000000
vn 0.000000 1.000000 0.000000
vn 0.000000 1.000000 0.000000
vn 0.000000 1.000000 -0.000000
vn 0.000000 1.000000 -0.000000
vn 0.000000 1.000000 -0.000000
vn 0.000000 1.000000 -0.000000
vn 0.000000 1.000000 0.000000
vn 0.000000 1.000000 0.000000
vn 0.000000 1.000000 0.000000
vn 0.000000 1.000000 0.000000
vn 0.000000 1.000000 -0.000000
vn 0.000000 1.000000 -0.000000
vn 0.000000 1.000000 -0.000000
vn 0.000000 1.000000 0.000000
vn 0.314592 -0.569388 -0.759492
vn 0.314592 -0.569389 -0.759492
vn -0.323520 0.534134 0.781048
vn -0.323520 0.534135 0.781047
vn -0.323520 0.534135 0.781047
vn -0.323520 0.534136 0.781046
vn -0.310784 -0.583492 -0.750300
vn -0.310784 -0.583492 -0.750300
vn 0.319734 0.549483 0.771906
vn 0.319734 0.549482 0.771906
vn 0.319734 0.549482 0.771906
vn 0.319734 0.549482 0.771907
vn -0.805389 -0.562714 -0.186283
vn -0.805389 -0.562713 -0.186284
vn 0.000000 -0.133783 0.991011
vn 0.000000 -0.133783 0.991011
vn 0.000000 -0.133783 0.991011
vn 0.000000 -0.133783 0.991011
vn 0.813988 0.537661 0.219873
vn 0.813987 0.537662 0.219872
vn 0.813988 0.537662 0.219872
vn 0.813987 0.537663 0.219872
vn -0.434922 -0.555762 0.708499
vn -0.434922 -0.555763 0.708498
vn 0.416373 0.529734 -0.738928
vn 0.416373 0.529734 -0.738928
vn 0.416373 0.529734 -0.738928
vn 0.416373 0.529734 -0.738928
vn -0.699217 -0.148968 -0.699217
vn -0.699217 -0.148968 -0.699217
vn -0.699216 -0.148969 -0.699218
vn -0.699216 -0.148969 -0.699218
vn 0.314592 -0.569388 0.759492
vn 0.314592 -0.569389 0.759492
vn -0.323520 0.534134 -0.781048
vn -0.323520 0.534135 -0.781047
vn -0.323520 0.534135 -0.781047
vn -0.323520 0.534137 -0.781046
vn 0.765988 -0.559101 0.317283
vn 0.765988 -0.559101 0.317283
vn -0.787480 0.522951 -0.326185
vn -0.787480 0.522952 -0.326185
vn -0.787480 0.522952 -0.326185
vn -0.787480 0.522953 -0.326185
vn 0.765988 -0.559101 -0.317283
vn 0.765988 -0.559101 -0.317283
vn -0.787480 0.522952 0.326185
vn -0.787480 0.522952 0.326185
vn -0.787480 0.522952 0.326185
vn -0.787480 0.522952 0.326185
vn 0.190372 0.006124 0.981693
vn 0.197117 -0.037744 0.979653
vn 0.192862 -0.009787 0.981177
vn 0.199189 -0.051736 0.978595
vn -0.569595 -0.018323 -0.821721
vn -0.567418 -0.033258 -0.822758
vn -0.563302 -0.059336 -0.824118
vn -0.561083 -0.072437 -0.824584
vn 0.000000 -0.127515 0.991837
vn 0.000000 -0.127515 0.991837
vn 0.000000 -0.127515 0.991837
vn -0.699939 -0.142021 -0.699940
vn -0.699939 -0.142021 -0.699940
vn -0.699939 -0.142021 -0.699940
f 1/9/1 2/10/2 9/18/3
f 9/18/3 2/10/2 10/19/4
f 2/10/5 3/11/6 10/19/7
f 10/19/7 3/11/6 11/20/8
f 4/12/9 12/21/10 3/11/11
f 3/11/11 12/21/10 11/20/12
f 5/13/13 6/14/14 13/22/15
f 13/22/15 6/14/14 14/23/16
f 7/15/17 15/24/18 6/14/19
f 6/14/19 15/24/18 14/23/20
f 8/16/21 16/25/22 7/15/23
f 7/15/23 16/25/22 15/24/24
f 8/16/25 1/17/26 16/25/27
f 16/25/27 1/17/26 9/26/28
f 2/2/29 1/1/30 17/35/31
f 3/3/32 2/2/29 17/35/31
f 4/4/33 3/3/32 17/35/31
f 6/6/34 5/5/35 17/35/31
f 7/7/36 6/6/34 17/35/31
f 8/8/37 7/7/36 17/35/31
f 1/1/30 8/8/37 17/35/31
f 18/37/38 19/38/39 20/36/40
f 19/38/39 21/39/41 20/36/40
f 21/39/41 22/40/42 20/36/40
f 23/41/43 24/42/44 20/36/40
f 24/42/44 25/43/45 20/36/40
f 25/43/45 26/44/46 20/36/40
f 26/44/46 18/37/38 20/36/40
f 27/45/47 28/46/48 30/48/49
f 30/48/49 28/46/48 29/47/50
f 28/46/51 31/49/52 29/47/53
f 29/47/53 31/49/52 32/50/54
f 31/49/55 33/51/56 32/50/57
f 32/50/57 33/51/56 34/52/58
f 36/54/59 37/55/60 35/53/61
f 35/53/61 37/55/60 38/56/62
f 36/54/63 39/57/64 37/55/65
f 37/55/65 39/57/64 40/58/66
f 39/57/67 41/59/68 40/58/69
f 40/58/69 41/59/68 42/60/70
f 41/59/71 27/45/72 42/60/73
f 42/60/73 27/45/72 30/48/74
f 9/33/3 10/32/4 27/45/75
f 27/45/75 10/32/4 28/46/76
f 18/37/77 30/48/78 19/38/79
f 19/38/79 30/48/78 29/47/80
f 10/32/7 11/31/8 28/46/81
f 28/46/81 11/31/8 31/49/82
f 19/38/83 29/47/84 21/39/85
f 21/39/85 29/47/84 32/50/86
f 12/30/10 33/51/87 11/31/12
f 11/31/12 33/51/87 31/49/88
f 22/40/89 34/52/90 12/30/91
f 12/30/91 34/52/90 33/51/92
f 22/40/93 21/39/94 34/52/95
f 34/52/95 21/39/94 32/50/96
f 13/29/15 14/28/16 35/53/97
f 35/53/97 14/28/16 36/54/98
f 24/42/99 23/41/100 37/55/101
f 37/55/101 23/41/100 38/56/102
f 23/41/103 13/29/104 38/56/105
f 38/56/105 13/29/104 35/53/106
f 15/27/18 39/57/107 14/28/20
f 14/28/20 39/57/107 36/54/108
f 25/43/109 24/42/110 40/58/111
f 40/58/111 24/42/110 37/55/112
f 16/34/22 41/59/113 15/27/24
f 15/27/24 41/59/113 39/57/114
f 26/44/115 25/43/116 42/60/117
f 42/60/117 25/43/116 40/58/118
f 16/34/27 9/33/28 41/59/119
f 41/59/119 9/33/28 27/45/120
f 26/44/121 42/60/122 18/37/123
f 18/37/123 42/60/122 30/48/124
f 17/35/125 20/36/126 4/4/127
f 4/4/127 20/36/126 22/40/128
f 17/35/129 5/5/130 20/36/131
f 20/36/131 5/5/130 23/41/132
f 12/21/133 4/4/134 22/40/135
f 13/29/136 23/41/137 5/13/138
