# Blender v3.5.1 OBJ File: ''
# www.blender.org
mtllib lowPolySphere.mtl
o Sphere
v 0.000000 0.191342 0.461940
v 0.000000 0.000000 0.500000
v 0.000000 -0.191342 0.461940
v 0.000000 -0.461940 0.191342
v -0.073223 0.461940 0.176777
v -0.135299 0.353553 0.326641
v -0.176777 0.191342 0.426777
v -0.191342 0.000000 0.461940
v -0.176777 -0.191342 0.426777
v -0.135299 -0.353553 0.326641
v -0.073223 -0.461940 0.176777
v -0.135299 0.461940 0.135299
v -0.250000 0.353553 0.250000
v -0.326641 0.191342 0.326641
v -0.353553 0.000000 0.353553
v -0.326641 -0.191342 0.326641
v -0.250000 -0.353553 0.250000
v -0.135299 -0.461940 0.135299
v -0.176777 0.461940 0.073223
v -0.326641 0.353553 0.135299
v -0.426777 0.191342 0.176777
v -0.461940 0.000000 0.191342
v -0.426777 -0.191342 0.176777
v -0.326641 -0.353553 0.135299
v -0.176777 -0.461940 0.073223
v -0.191342 0.461940 -0.000000
v -0.353553 0.353553 -0.000000
v -0.461940 0.191342 -0.000000
v -0.500000 0.000000 -0.000000
v -0.461940 -0.191342 -0.000000
v -0.353553 -0.353553 -0.000000
v -0.191342 -0.461940 -0.000000
v -0.176777 0.461940 -0.073223
v -0.326641 0.353553 -0.135299
v -0.426777 0.191342 -0.176777
v -0.461940 0.000000 -0.191342
v -0.426777 -0.191342 -0.176777
v -0.326641 -0.353553 -0.135299
v -0.176777 -0.461940 -0.073223
v -0.135299 0.461940 -0.135299
v -0.250000 0.353553 -0.250000
v -0.326641 0.191342 -0.326641
v -0.353553 0.000000 -0.353553
v -0.326641 -0.191342 -0.326641
v -0.250000 -0.353553 -0.250000
v -0.135299 -0.461940 -0.135299
v -0.073223 0.461940 -0.176777
v -0.135299 0.353553 -0.326641
v -0.176777 0.191342 -0.426777
v -0.191342 0.000000 -0.461940
v -0.176777 -0.191342 -0.426777
v -0.135299 -0.353553 -0.326641
v -0.073223 -0.461940 -0.176777
v 0.000000 0.461940 -0.191342
v 0.000000 0.353553 -0.353553
v 0.000000 0.191342 -0.461940
v 0.000000 0.000000 -0.500000
v 0.000000 -0.191342 -0.461940
v 0.000000 -0.353553 -0.353553
v 0.000000 -0.461940 -0.191342
v 0.000000 -0.500000 0.000000
v 0.000000 0.500000 0.000000
v 0.073223 0.461940 -0.176777
v 0.135299 0.353553 -0.326641
v 0.176777 0.191342 -0.426777
v 0.191342 0.000000 -0.461940
v 0.176777 -0.191342 -0.426777
v 0.135299 -0.353553 -0.326641
v 0.073223 -0.461940 -0.176777
v 0.135299 0.461940 -0.135299
v 0.250000 0.353553 -0.250000
v 0.326641 0.191342 -0.326641
v 0.353554 0.000000 -0.353553
v 0.326641 -0.191342 -0.326641
v 0.250000 -0.353553 -0.250000
v 0.135299 -0.461940 -0.135299
v 0.176777 0.461940 -0.073223
v 0.326641 0.353553 -0.135299
v 0.426777 0.191342 -0.176777
v 0.461940 0.000000 -0.191341
v 0.426777 -0.191342 -0.176777
v 0.326641 -0.353553 -0.135299
v 0.176777 -0.461940 -0.073223
v 0.191342 0.461940 0.000000
v 0.353553 0.353553 0.000000
v 0.461940 0.191342 0.000000
v 0.500000 0.000000 0.000000
v 0.461940 -0.191342 0.000000
v 0.353553 -0.353553 0.000000
v 0.191342 -0.461940 0.000000
v 0.176777 0.461940 0.073223
v 0.326641 0.353553 0.135299
v 0.426777 0.191342 0.176777
v 0.461940 0.000000 0.191342
v 0.426777 -0.191342 0.176777
v 0.326641 -0.353553 0.135299
v 0.176777 -0.461940 0.073223
v 0.135299 0.461940 0.135299
v 0.250000 0.353553 0.250000
v 0.326641 0.191342 0.326641
v 0.353553 0.000000 0.353554
v 0.326641 -0.191342 0.326641
v 0.250000 -0.353553 0.250000
v 0.135299 -0.461940 0.135299
v 0.073223 0.461940 0.176777
v 0.135299 0.353553 0.326641
v 0.176776 0.191342 0.426777
v 0.191341 0.000000 0.461940
v 0.176776 -0.191342 0.426777
v 0.135299 -0.353553 0.326641
v 0.073223 -0.461940 0.176777
v -0.000000 0.461940 0.191342
v -0.000000 0.353553 0.353553
v -0.000000 -0.353553 0.353553
vt 0.750000 0.750000
vt 0.750000 0.875000
vt 0.687500 0.875000
vt 0.687500 0.750000
vt 0.750000 0.125000
vt 0.750000 0.250000
vt 0.687500 0.250000
vt 0.687500 0.125000
vt 0.750000 0.375000
vt 0.750000 0.500000
vt 0.687500 0.500000
vt 0.687500 0.375000
vt 0.750000 0.625000
vt 0.687500 0.625000
vt 0.718750 1.000000
vt 0.718750 0.000000
vt 0.625000 0.500000
vt 0.625000 0.375000
vt 0.625000 0.750000
vt 0.625000 0.625000
vt 0.656250 1.000000
vt 0.625000 0.875000
vt 0.656250 0.000000
vt 0.625000 0.125000
vt 0.625000 0.250000
vt 0.593750 0.000000
vt 0.562500 0.125000
vt 0.562500 0.375000
vt 0.562500 0.250000
vt 0.562500 0.625000
vt 0.562500 0.500000
vt 0.562500 0.875000
vt 0.562500 0.750000
vt 0.593750 1.000000
vt 0.500000 0.625000
vt 0.500000 0.500000
vt 0.500000 0.875000
vt 0.500000 0.750000
vt 0.500000 0.250000
vt 0.500000 0.125000
vt 0.500000 0.375000
vt 0.531250 1.000000
vt 0.531250 0.000000
vt 0.437500 0.250000
vt 0.437500 0.125000
vt 0.437500 0.500000
vt 0.437500 0.375000
vt 0.437500 0.750000
vt 0.437500 0.625000
vt 0.468750 1.000000
vt 0.437500 0.875000
vt 0.468750 0.000000
vt 0.375000 0.750000
vt 0.375000 0.625000
vt 0.406250 1.000000
vt 0.375000 0.875000
vt 0.406250 0.000000
vt 0.375000 0.125000
vt 0.375000 0.375000
vt 0.375000 0.250000
vt 0.375000 0.500000
vt 0.343750 0.000000
vt 0.312500 0.125000
vt 0.312500 0.375000
vt 0.312500 0.250000
vt 0.312500 0.625000
vt 0.312500 0.500000
vt 0.312500 0.875000
vt 0.312500 0.750000
vt 0.343750 1.000000
vt 0.250000 0.875000
vt 0.250000 0.750000
vt 0.250000 0.250000
vt 0.250000 0.125000
vt 0.250000 0.500000
vt 0.250000 0.375000
vt 0.250000 0.625000
vt 0.281250 1.000000
vt 0.281250 0.000000
vt 0.187500 0.250000
vt 0.187500 0.125000
vt 0.187500 0.500000
vt 0.187500 0.375000
vt 0.187500 0.750000
vt 0.187500 0.625000
vt 0.218750 1.000000
vt 0.187500 0.875000
vt 0.218750 0.000000
vt 0.156250 1.000000
vt 0.125000 0.875000
vt 0.156250 0.000000
vt 0.125000 0.125000
vt 0.125000 0.375000
vt 0.125000 0.250000
vt 0.125000 0.625000
vt 0.125000 0.500000
vt 0.125000 0.750000
vt 0.062500 0.375000
vt 0.062500 0.250000
vt 0.062500 0.625000
vt 0.062500 0.500000
vt 0.062500 0.875000
vt 0.062500 0.750000
vt 0.062500 0.125000
vt 0.093750 1.000000
vt 0.093750 0.000000
vt 0.000000 0.250000
vt 0.000000 0.125000
vt 0.000000 0.500000
vt 0.000000 0.375000
vt 0.000000 0.750000
vt 0.000000 0.625000
vt 0.031250 1.000000
vt 0.000000 0.875000
vt 0.031250 0.000000
vt 1.000000 0.375000
vt 1.000000 0.500000
vt 0.937500 0.500000
vt 0.937500 0.375000
vt 1.000000 0.625000
vt 1.000000 0.750000
vt 0.937500 0.750000
vt 0.937500 0.625000
vt 1.000000 0.875000
vt 0.968750 1.000000
vt 0.937500 0.875000
vt 0.968750 0.000000
vt 1.000000 0.125000
vt 0.937500 0.125000
vt 1.000000 0.250000
vt 0.937500 0.250000
vt 0.906250 0.000000
vt 0.875000 0.125000
vt 0.875000 0.375000
vt 0.875000 0.250000
vt 0.875000 0.625000
vt 0.875000 0.500000
vt 0.875000 0.875000
vt 0.875000 0.750000
vt 0.906250 1.000000
vt 0.812500 0.625000
vt 0.812500 0.500000
vt 0.812500 0.875000
vt 0.812500 0.750000
vt 0.812500 0.250000
vt 0.812500 0.125000
vt 0.812500 0.375000
vt 0.843750 1.000000
vt 0.843750 0.000000
vt 0.781250 1.000000
vt 0.781250 0.000000
vn -0.1098 0.8264 0.5522
vn -0.1098 -0.8264 0.5522
vn -0.1915 -0.1915 0.9626
vn -0.1632 0.5481 0.8203
vn -0.0388 0.9800 0.1949
vn -0.0388 -0.9800 0.1949
vn -0.1632 -0.5481 0.8203
vn -0.1915 0.1915 0.9626
vn -0.5453 -0.1915 0.8161
vn -0.4647 0.5481 0.6954
vn -0.1104 0.9800 0.1653
vn -0.1104 -0.9800 0.1653
vn -0.4647 -0.5481 0.6954
vn -0.5453 0.1915 0.8161
vn -0.3128 0.8264 0.4681
vn -0.3128 -0.8264 0.4681
vn -0.1653 -0.9800 0.1104
vn -0.6954 -0.5481 0.4647
vn -0.8161 0.1915 0.5453
vn -0.4681 0.8264 0.3128
vn -0.4681 -0.8264 0.3128
vn -0.8161 -0.1915 0.5453
vn -0.6954 0.5481 0.4647
vn -0.1653 0.9800 0.1104
vn -0.9626 0.1915 0.1915
vn -0.5522 0.8264 0.1098
vn -0.5522 -0.8264 0.1098
vn -0.9626 -0.1915 0.1915
vn -0.8203 0.5481 0.1632
vn -0.1949 0.9800 0.0388
vn -0.1949 -0.9800 0.0388
vn -0.8203 -0.5481 0.1632
vn -0.5522 -0.8264 -0.1098
vn -0.9626 -0.1915 -0.1915
vn -0.8203 0.5481 -0.1632
vn -0.1949 0.9800 -0.0388
vn -0.1949 -0.9800 -0.0388
vn -0.8203 -0.5481 -0.1632
vn -0.9626 0.1915 -0.1915
vn -0.5522 0.8264 -0.1098
vn -0.6954 0.5481 -0.4647
vn -0.1653 0.9800 -0.1104
vn -0.1653 -0.9800 -0.1104
vn -0.6954 -0.5481 -0.4647
vn -0.8161 0.1915 -0.5453
vn -0.4681 0.8264 -0.3128
vn -0.4681 -0.8264 -0.3128
vn -0.8161 -0.1915 -0.5453
vn -0.1104 -0.9800 -0.1653
vn -0.4647 -0.5481 -0.6954
vn -0.5453 0.1915 -0.8161
vn -0.3128 0.8264 -0.4681
vn -0.3128 -0.8264 -0.4681
vn -0.5453 -0.1915 -0.8161
vn -0.4647 0.5481 -0.6954
vn -0.1104 0.9800 -0.1653
vn -0.1098 0.8264 -0.5522
vn -0.1098 -0.8264 -0.5522
vn -0.1915 -0.1915 -0.9626
vn -0.1632 0.5481 -0.8203
vn -0.0388 0.9800 -0.1949
vn -0.0388 -0.9800 -0.1949
vn -0.1632 -0.5481 -0.8203
vn -0.1915 0.1915 -0.9626
vn 0.1098 -0.8264 -0.5522
vn 0.1915 -0.1915 -0.9626
vn 0.1632 0.5481 -0.8203
vn 0.0388 0.9800 -0.1949
vn 0.0388 -0.9800 -0.1949
vn 0.1632 -0.5481 -0.8203
vn 0.1915 0.1915 -0.9626
vn 0.1098 0.8264 -0.5522
vn 0.1104 0.9800 -0.1653
vn 0.1104 -0.9800 -0.1653
vn 0.4647 -0.5481 -0.6954
vn 0.5453 0.1915 -0.8161
vn 0.3128 0.8264 -0.4681
vn 0.3128 -0.8264 -0.4681
vn 0.5453 -0.1915 -0.8161
vn 0.4647 0.5481 -0.6954
vn 0.6954 -0.5481 -0.4647
vn 0.8161 0.1915 -0.5453
vn 0.4681 0.8264 -0.3128
vn 0.4681 -0.8264 -0.3128
vn 0.8161 -0.1915 -0.5453
vn 0.6954 0.5481 -0.4647
vn 0.1653 0.9800 -0.1104
vn 0.1653 -0.9800 -0.1104
vn 0.5522 -0.8264 -0.1098
vn 0.9626 -0.1915 -0.1915
vn 0.8203 0.5481 -0.1632
vn 0.1949 0.9800 -0.0388
vn 0.1949 -0.9800 -0.0388
vn 0.8203 -0.5481 -0.1632
vn 0.9626 0.1915 -0.1915
vn 0.5522 0.8264 -0.1098
vn 0.9626 -0.1915 0.1915
vn 0.8203 0.5481 0.1632
vn 0.1949 0.9800 0.0388
vn 0.1949 -0.9800 0.0388
vn 0.8203 -0.5481 0.1632
vn 0.9626 0.1915 0.1915
vn 0.5522 0.8264 0.1098
vn 0.5522 -0.8264 0.1098
vn 0.1653 -0.9800 0.1104
vn 0.6954 -0.5481 0.4647
vn 0.8161 0.1915 0.5453
vn 0.4681 0.8264 0.3128
vn 0.4681 -0.8264 0.3128
vn 0.8161 -0.1915 0.5453
vn 0.6954 0.5481 0.4647
vn 0.1653 0.9800 0.1104
vn 0.5453 0.1915 0.8161
vn 0.3128 0.8264 0.4681
vn 0.3128 -0.8264 0.4681
vn 0.5453 -0.1915 0.8161
vn 0.4647 0.5481 0.6954
vn 0.1104 0.9800 0.1653
vn 0.1104 -0.9800 0.1653
vn 0.4647 -0.5481 0.6954
vn 0.1098 -0.8264 0.5522
vn 0.1915 -0.1915 0.9626
vn 0.1632 0.5481 0.8203
vn 0.0388 0.9800 0.1949
vn 0.0388 -0.9800 0.1949
vn 0.1632 -0.5481 0.8203
vn 0.1915 0.1915 0.9626
vn 0.1098 0.8264 0.5522
usemtl None
s off
f 113/1/1 112/2/1 5/3/1 6/4/1
f 4/5/2 114/6/2 10/7/2 11/8/2
f 3/9/3 2/10/3 8/11/3 9/12/3
f 1/13/4 113/1/4 6/4/4 7/14/4
f 112/2/5 62/15/5 5/3/5
f 61/16/6 4/5/6 11/8/6
f 114/6/7 3/9/7 9/12/7 10/7/7
f 2/10/8 1/13/8 7/14/8 8/11/8
f 9/12/9 8/11/9 15/17/9 16/18/9
f 7/14/10 6/4/10 13/19/10 14/20/10
f 5/3/11 62/21/11 12/22/11
f 61/23/12 11/8/12 18/24/12
f 10/7/13 9/12/13 16/18/13 17/25/13
f 8/11/14 7/14/14 14/20/14 15/17/14
f 6/4/15 5/3/15 12/22/15 13/19/15
f 11/8/16 10/7/16 17/25/16 18/24/16
f 61/26/17 18/24/17 25/27/17
f 17/25/18 16/18/18 23/28/18 24/29/18
f 15/17/19 14/20/19 21/30/19 22/31/19
f 13/19/20 12/22/20 19/32/20 20/33/20
f 18/24/21 17/25/21 24/29/21 25/27/21
f 16/18/22 15/17/22 22/31/22 23/28/22
f 14/20/23 13/19/23 20/33/23 21/30/23
f 12/22/24 62/34/24 19/32/24
f 22/31/25 21/30/25 28/35/25 29/36/25
f 20/33/26 19/32/26 26/37/26 27/38/26
f 25/27/27 24/29/27 31/39/27 32/40/27
f 23/28/28 22/31/28 29/36/28 30/41/28
f 21/30/29 20/33/29 27/38/29 28/35/29
f 19/32/30 62/42/30 26/37/30
f 61/43/31 25/27/31 32/40/31
f 24/29/32 23/28/32 30/41/32 31/39/32
f 32/40/33 31/39/33 38/44/33 39/45/33
f 30/41/34 29/36/34 36/46/34 37/47/34
f 28/35/35 27/38/35 34/48/35 35/49/35
f 26/37/36 62/50/36 33/51/36
f 61/52/37 32/40/37 39/45/37
f 31/39/38 30/41/38 37/47/38 38/44/38
f 29/36/39 28/35/39 35/49/39 36/46/39
f 27/38/40 26/37/40 33/51/40 34/48/40
f 35/49/41 34/48/41 41/53/41 42/54/41
f 33/51/42 62/55/42 40/56/42
f 61/57/43 39/45/43 46/58/43
f 38/44/44 37/47/44 44/59/44 45/60/44
f 36/46/45 35/49/45 42/54/45 43/61/45
f 34/48/46 33/51/46 40/56/46 41/53/46
f 39/45/47 38/44/47 45/60/47 46/58/47
f 37/47/48 36/46/48 43/61/48 44/59/48
f 61/62/49 46/58/49 53/63/49
f 45/60/50 44/59/50 51/64/50 52/65/50
f 43/61/51 42/54/51 49/66/51 50/67/51
f 41/53/52 40/56/52 47/68/52 48/69/52
f 46/58/53 45/60/53 52/65/53 53/63/53
f 44/59/54 43/61/54 50/67/54 51/64/54
f 42/54/55 41/53/55 48/69/55 49/66/55
f 40/56/56 62/70/56 47/68/56
f 48/69/57 47/68/57 54/71/57 55/72/57
f 53/63/58 52/65/58 59/73/58 60/74/58
f 51/64/59 50/67/59 57/75/59 58/76/59
f 49/66/60 48/69/60 55/72/60 56/77/60
f 47/68/61 62/78/61 54/71/61
f 61/79/62 53/63/62 60/74/62
f 52/65/63 51/64/63 58/76/63 59/73/63
f 50/67/64 49/66/64 56/77/64 57/75/64
f 60/74/65 59/73/65 68/80/65 69/81/65
f 58/76/66 57/75/66 66/82/66 67/83/66
f 56/77/67 55/72/67 64/84/67 65/85/67
f 54/71/68 62/86/68 63/87/68
f 61/88/69 60/74/69 69/81/69
f 59/73/70 58/76/70 67/83/70 68/80/70
f 57/75/71 56/77/71 65/85/71 66/82/71
f 55/72/72 54/71/72 63/87/72 64/84/72
f 63/87/73 62/89/73 70/90/73
f 61/91/74 69/81/74 76/92/74
f 68/80/75 67/83/75 74/93/75 75/94/75
f 66/82/76 65/85/76 72/95/76 73/96/76
f 64/84/77 63/87/77 70/90/77 71/97/77
f 69/81/78 68/80/78 75/94/78 76/92/78
f 67/83/79 66/82/79 73/96/79 74/93/79
f 65/85/80 64/84/80 71/97/80 72/95/80
f 75/94/81 74/93/81 81/98/81 82/99/81
f 73/96/82 72/95/82 79/100/82 80/101/82
f 71/97/83 70/90/83 77/102/83 78/103/83
f 76/92/84 75/94/84 82/99/84 83/104/84
f 74/93/85 73/96/85 80/101/85 81/98/85
f 72/95/86 71/97/86 78/103/86 79/100/86
f 70/90/87 62/105/87 77/102/87
f 61/106/88 76/92/88 83/104/88
f 83/104/89 82/99/89 89/107/89 90/108/89
f 81/98/90 80/101/90 87/109/90 88/110/90
f 79/100/91 78/103/91 85/111/91 86/112/91
f 77/102/92 62/113/92 84/114/92
f 61/115/93 83/104/93 90/108/93
f 82/99/94 81/98/94 88/110/94 89/107/94
f 80/101/95 79/100/95 86/112/95 87/109/95
f 78/103/96 77/102/96 84/114/96 85/111/96
f 88/116/97 87/117/97 94/118/97 95/119/97
f 86/120/98 85/121/98 92/122/98 93/123/98
f 84/124/99 62/125/99 91/126/99
f 61/127/100 90/128/100 97/129/100
f 89/130/101 88/116/101 95/119/101 96/131/101
f 87/117/102 86/120/102 93/123/102 94/118/102
f 85/121/103 84/124/103 91/126/103 92/122/103
f 90/128/104 89/130/104 96/131/104 97/129/104
f 61/132/105 97/129/105 104/133/105
f 96/131/106 95/119/106 102/134/106 103/135/106
f 94/118/107 93/123/107 100/136/107 101/137/107
f 92/122/108 91/126/108 98/138/108 99/139/108
f 97/129/109 96/131/109 103/135/109 104/133/109
f 95/119/110 94/118/110 101/137/110 102/134/110
f 93/123/111 92/122/111 99/139/111 100/136/111
f 91/126/112 62/140/112 98/138/112
f 101/137/113 100/136/113 107/141/113 108/142/113
f 99/139/114 98/138/114 105/143/114 106/144/114
f 104/133/115 103/135/115 110/145/115 111/146/115
f 102/134/116 101/137/116 108/142/116 109/147/116
f 100/136/117 99/139/117 106/144/117 107/141/117
f 98/138/118 62/148/118 105/143/118
f 61/149/119 104/133/119 111/146/119
f 103/135/120 102/134/120 109/147/120 110/145/120
f 111/146/121 110/145/121 114/6/121 4/5/121
f 109/147/122 108/142/122 2/10/122 3/9/122
f 107/141/123 106/144/123 113/1/123 1/13/123
f 105/143/124 62/150/124 112/2/124
f 61/151/125 111/146/125 4/5/125
f 110/145/126 109/147/126 3/9/126 114/6/126
f 108/142/127 107/141/127 1/13/127 2/10/127
f 106/144/128 105/143/128 112/2/128 113/1/128
